<svg xmlns="http://www.w3.org/2000/svg" xmlns:xlink="http://www.w3.org/1999/xlink" viewBox="0 0 845.61 423.78"><defs><style>.cls-1{fill:#c3922e;}.cls-2{fill:url(#linear-gradient);}.cls-3{fill:#005604;}</style><linearGradient id="linear-gradient" x1="113.97" y1="211.36" x2="674.07" y2="211.36" gradientUnits="userSpaceOnUse"><stop offset="0" stop-color="#ce9e38"/><stop offset="0.37" stop-color="#f6e859"/><stop offset="0.45" stop-color="#f3e257"/><stop offset="0.55" stop-color="#ead34f"/><stop offset="0.66" stop-color="#dcb944"/><stop offset="0.75" stop-color="#ce9e38"/><stop offset="0.8" stop-color="#d1a33b"/><stop offset="0.85" stop-color="#d8b142"/><stop offset="0.9" stop-color="#e4c94f"/><stop offset="0.96" stop-color="#f6ea61"/><stop offset="0.96" stop-color="#f6eb61"/><stop offset="0.96" stop-color="#f2e45d"/><stop offset="0.99" stop-color="#d3a83d"/><stop offset="1" stop-color="#c79030"/></linearGradient></defs><g id="Layer_2" data-name="Layer 2"><g id="Layer_10" data-name="Layer 10"><path d="M271.11,301.09s16.21,7.93,7.64,20.18-18.19,22.83-32.7,29.22c-8.44-8.57-15.55-16.37-15.55-16.37s-16-19.76-23.79,5c-2.61,8.87.22,13.25.22,13.25s-1.14-12.26,15.66-9.7,29.49,27.47,31.18,35.22-9,13.36-14,15.09c7.13,2.34,21.13,1.23,25.7-1.67s2.76-10.49-1.14-16.49-10.44-14.75-10.44-14.75S288.33,333,321.62,327C292.1,306.83,282.51,294.75,271.11,301.09Z"/><path class="cls-1" d="M271.11,301.09s16.21,7.93,7.64,20.18-18.19,22.83-32.7,29.22c-8.44-8.57-15.55-16.37-15.55-16.37s-16-19.76-23.79,5c-2.61,8.87.22,13.25.22,13.25s-1.14-12.26,15.66-9.7,29.49,27.47,31.18,35.22-9,13.36-14,15.09c7.13,2.34,21.13,1.23,25.7-1.67s2.76-10.49-1.14-16.49-10.44-14.75-10.44-14.75S288.33,333,321.62,327C292.1,306.83,282.51,294.75,271.11,301.09Z"/><path class="cls-2" d="M439.93,146c-45.73,10.06-114.07,43.29-183.58,47-127.12,8.69-138.57,28.85-140.49,32.47-5.66,10.67,3.2,29.26,3.2,29.26s.16-13.26,11.74-10c26.52,9,96.95,33,96.95,33,26.53,9.05,43.9.91,66.76-12.8s99.69-56.71,146.34-81.4,122.56-31.1,233.22-24.7C581.7,142.35,485.66,136,439.93,146ZM145.14,219.47s-7.33-6,20.11-9.67C156.75,216.66,156,221.71,145.14,219.47Z"/><path class="cls-3" d="M201,189.14s62.48-5.15,72.43-6.86,73.46-14.42,84.79-19.23C340.72,138.68,173.89,13.39.89,0,85.33,30.89,254.16,98.13,289.23,139.81,220.24,102,189.34,78.27.89,10.3-6.32,29.86,32.81,52.52,32.81,52.52s138,44.28,188.46,95.77C169.78,117.4,130.64,91.65,41.05,62.82,123.43,107.1,178.7,144.52,201,189.14Z"/><path class="cls-3" d="M841.49,199c-106.19,20.9-193.38,16.1-252.89,4.11,72.86,2,93.64,3.66,121.64,2,19.54-1.17,96.81-9.56,135.37-64.88-48.17,20.71-50.23,28.55-111.9,31.81-65.89,3.49-129-7.51-190.23-.61S439.48,198,395.7,220.56c-40.63,21-90.19,47.88-112.12,61.44s-47.78,8.44-47.78,8.44c15.45,6,61.61,39.59,69.69,49.17s-15.2,34.77-36.05,40.43c-14.54-15.93-17.31-25.56-26.62-24.88-15.21,1.1-12.46,21.71-12.46,21.71s3-10.42,16.26-6.39,27.15,28,28.48,37.44c1.49,10.47-15.09,14-15.09,14s1.39.84,13.13,1.7c22.33,1.64,19.19-9.9,3.41-33.47,12.87-9.62,27.47-16.5,42.69-21.34,3.8.21,8.61-1,14.07-2.8,6.3.63,12.77,1.95,18.14,4.48a85.74,85.74,0,0,0-9.95-7.23,30.49,30.49,0,0,1,6.78-1.3,48.57,48.57,0,0,1,24.88,3.75,58.87,58.87,0,0,1-6.88-6.46c5.58,1.71,12.29,3.71,20.76,4.06,14.3.6,23.67-3,23.67-3-6-.64-8.68-2.46-9.68-4.48,1.65-1.75,2.76-2.75,7.94-3.4l22-2.37c-4.24-2.18-7-2.92-8.77-2.81,3.35-1.42,6.66-2.91,9.83-4.46L429.58,344c6.37-2.6,10-4.1,16.24-6.33s14.91-2.17,14.91-2.17a14.2,14.2,0,0,0-6.28-5c4.79-2.91,7.68-4.86,7.68-4.86S444.9,329,403.79,294.46c99.69,52.29,135.79,29.45,166.13,24.32-67.68-17.77-118.5-42.57-132.23-62.15,73.12,33.65,146,62.83,230.48,38.8-63.11-12.8-121-21.48-176.91-52.67,40.85,15.82,185.76,57.05,243.43,15.6-84.36-5.06-151.53-8.64-196.81-32.42C668.17,253.55,754.6,262.48,841.49,199Z"/></g></g></svg>