<svg xmlns="http://www.w3.org/2000/svg" viewBox="0 0 611.68 138.89"><defs><style>.cls-1{fill:#f2f2f2;}</style></defs><g id="Layer_2" data-name="Layer 2"><g id="Layer_10" data-name="Layer 10"><path class="cls-1" d="M60.61,124.8a1.28,1.28,0,0,1,1.08,2c-2.11,3.37-4.58,7.37-5.28,8.36-1.42,1.78-4.54,3.77-11.06,3.77H1.28A1.28,1.28,0,0,1,0,137.61V4C.28,1.79,2.83,0,6.24,0H56.86a1.28,1.28,0,0,1,1.07,2l-5.49,8.34c-1.14,1.78-4.25,4-10.77,4H25.23c-2.84,0-4.82,1.38-4.82,3.37v40a1.28,1.28,0,0,0,1.28,1.28h27a1.28,1.28,0,0,1,1.09,2c-2.12,3.42-4.59,7.57-5.3,8.56-1.42,1.79-4.25,3.77-10.77,3.77h-8.5c-2.55,0-4.82,1.59-4.82,3.38v46.93a1.28,1.28,0,0,0,1.28,1.28Z"/><path class="cls-1" d="M241,138.89H221.3a1.29,1.29,0,0,1-1.26-1L203.64,50a1.28,1.28,0,0,0-2.52,0l-16.4,87.85a1.28,1.28,0,0,1-1.26,1H163.72a1.28,1.28,0,0,1-1.25-1.55L192,1a1.28,1.28,0,0,1,1.25-1h10c8.51,0,9.92,3.77,10.77,7.54l28.29,129.8A1.28,1.28,0,0,1,241,138.89Z"/><path class="cls-1" d="M391.59,138.89a1.28,1.28,0,0,1-1.28-1.28V88.09c0-6.74-5.1-8.92-10.49-8.92h-9.49a1.27,1.27,0,0,0-1.28,1.27v57.17a1.28,1.28,0,0,1-1.28,1.28H349.92a1.29,1.29,0,0,1-1.28-1.28V1.28A1.28,1.28,0,0,1,349.92,0h35.85c13.61,0,25,7.74,25,17.46V60.32s.66,8.45-4.79,11.42a1.27,1.27,0,0,0-.13,2.14c5.36,3.79,4.92,11.83,4.92,11.83v51.9a1.29,1.29,0,0,1-1.28,1.28ZM379.82,65.67c5.39,0,10.49-1.58,10.49-7.93V20.44c0-5.16-5.1-7.15-10.49-7.15h-9.49a1.28,1.28,0,0,0-1.28,1.28V64.39a1.28,1.28,0,0,0,1.28,1.28Z"/><path class="cls-1" d="M610.4,138.89H592.84a1.28,1.28,0,0,1-1.28-1.28V75.42a1.28,1.28,0,0,0-2.5-.39l-12.52,39a1.29,1.29,0,0,1-1.22.89H570c-11.9,0-14.17-8.33-15.3-11.31l-9.41-28.7a1.28,1.28,0,0,0-2.5.4v62.34a1.28,1.28,0,0,1-1.28,1.28H524a1.28,1.28,0,0,1-1.28-1.28V1.28A1.28,1.28,0,0,1,524,0h11.19c7.94,0,9.07,5.16,9.07,5.16l22.27,75.49a1.28,1.28,0,0,0,2.46,0L590.14,5c.28-.59,1.7-5,9.07-5H610.4a1.28,1.28,0,0,1,1.28,1.28V137.61A1.28,1.28,0,0,1,610.4,138.89Z"/></g></g></svg>